<svg width="370" height="71" viewBox="0 0 370 71" fill="none" xmlns="http://www.w3.org/2000/svg">
<path fill-rule="evenodd" clip-rule="evenodd" d="M32.1437 35.6996C28.4791 32.035 23.6628 30.1504 18.8465 30.1504H18.7941C13.9778 30.1504 9.16149 31.9827 5.49689 35.6996C-1.8323 43.0812 -1.8323 54.9649 5.49689 62.3465C12.8261 69.6757 24.7622 69.6757 32.0914 62.3465C39.4729 55.0173 39.4729 43.0812 32.1437 35.6996ZM26.8039 57.0066C22.4064 61.4042 15.2342 61.4042 10.8367 57.0066C6.43922 52.6091 6.43922 45.437 10.8367 41.0395C15.2342 36.642 22.4064 36.642 26.8039 41.0395C31.2014 45.437 31.2014 52.6091 26.8039 57.0066Z" fill="#2D8CFF"/>
<path fill-rule="evenodd" clip-rule="evenodd" d="M153.233 35.6996C149.568 32.035 144.752 30.1504 139.935 30.1504H139.883C135.067 30.1504 130.25 31.9827 126.586 35.6996C119.257 43.0812 119.257 54.9649 126.586 62.3465C133.915 69.6757 145.851 69.6757 153.18 62.3465C160.562 55.0173 160.562 43.0812 153.233 35.6996ZM147.893 57.0066C143.495 61.4042 136.323 61.4042 131.926 57.0066C127.528 52.6091 127.528 45.437 131.926 41.0395C136.323 36.642 143.495 36.642 147.893 41.0395C152.343 45.437 152.343 52.6091 147.893 57.0066Z" fill="#414155"/>
<path fill-rule="evenodd" clip-rule="evenodd" d="M192.758 35.6996C189.094 32.035 184.277 30.2027 179.461 30.1504C174.645 30.1504 169.828 31.9827 166.164 35.6996C158.835 43.0812 158.835 54.9649 166.164 62.3465C173.493 69.6757 185.429 69.6757 192.758 62.3465C200.088 55.0173 200.088 43.0812 192.758 35.6996ZM187.419 57.0066C183.021 61.4042 175.849 61.4042 171.451 57.0066C167.054 52.6091 167.054 45.437 171.451 41.0395C175.849 36.642 183.021 36.642 187.419 41.0395C191.868 45.437 191.868 52.6091 187.419 57.0066Z" fill="#414155"/>
<path fill-rule="evenodd" clip-rule="evenodd" d="M92.8706 67.7918L94.7553 67.8965H122.973L122.868 66.0118C122.606 62.9231 120.407 60.672 117.319 60.4626L115.434 60.3579H98.4722L121.088 37.7945L120.983 35.9098C120.826 32.7687 118.523 30.5176 115.434 30.3606L113.549 30.2559H85.332L85.4367 32.1405C85.6985 35.2292 87.8972 37.5327 90.986 37.6898L92.8706 37.7945H109.832L87.2167 60.4102L87.3214 62.2949C87.4784 65.3313 89.7296 67.5824 92.8706 67.7918Z" fill="#414155"/>
<path fill-rule="evenodd" clip-rule="evenodd" d="M221.708 41.5098C222.337 42.6092 222.546 43.8657 222.598 45.2791L222.703 47.1638V60.3563L222.808 62.241C223.017 65.3297 225.268 67.5808 228.357 67.7902L230.242 67.8949V47.1638L230.346 45.2791C230.399 43.8657 230.608 42.6092 231.289 41.5098C232.597 39.2587 235.006 37.7929 237.78 37.7929C240.555 37.7929 243.015 39.3111 244.324 41.5622C244.952 42.6616 245.162 43.9704 245.214 45.3315L245.319 47.2161V60.4087L245.424 62.2933C245.633 65.3821 247.884 67.6855 250.973 67.8426L252.857 67.9473V47.2685V45.3838C252.857 37.06 246.104 30.3066 237.78 30.3066C233.278 30.3066 229.247 32.296 226.472 35.3847C223.75 32.2436 219.667 30.3066 215.164 30.3066C212.023 30.3066 209.144 31.249 206.736 32.8719C205.27 31.249 202.024 30.3066 200.14 30.3066V67.9996L202.024 67.8949C205.165 67.6855 207.469 65.4868 207.574 62.3457L207.678 60.461V47.2685L207.783 45.3838C207.835 43.9704 208.045 42.7139 208.725 41.6145C210.034 39.3634 212.442 37.8452 215.217 37.8452C217.991 37.7405 220.4 39.2587 221.708 41.5098Z" fill="#414155"/>
<path fill-rule="evenodd" clip-rule="evenodd" d="M56.6966 30.2031C52.9797 30.2031 49.5245 31.4072 46.7499 33.3966C45.127 31.1978 41.3577 30.2031 39.5254 30.2031V67.8961L41.41 67.7914C44.6035 67.582 46.9069 65.3309 47.0116 62.1898L47.1163 60.3052V47.4791C47.1163 42.1916 51.4092 37.8988 56.6966 37.8988C61.9841 37.8988 66.2769 42.1916 66.2769 47.4791V60.4622L66.3816 62.2422C66.4863 65.4356 68.8422 67.6344 71.9832 67.8438L73.8679 67.9485V47.4791C73.9202 37.8988 66.2246 30.2031 56.6966 30.2031Z" fill="#2D8CFF"/>
<g filter="url(#filter0_d)">
<rect x="268.418" y="16.5352" width="85.5824" height="38.9011" rx="11.6703" fill="#2D8CFF"/>
</g>
<path d="M282.897 44.3691V28.074H288.891C290.017 28.074 290.975 28.1783 291.766 28.3871C292.556 28.5959 293.201 28.8904 293.7 29.2707C294.2 29.6509 294.562 30.1132 294.785 30.6575C295.016 31.2018 295.132 31.8094 295.132 32.4805C295.132 32.8458 295.08 33.2 294.975 33.543C294.871 33.8785 294.707 34.1954 294.483 34.4936C294.26 34.7919 293.973 35.064 293.622 35.31C293.272 35.5486 292.85 35.7574 292.358 35.9364C293.432 36.1973 294.226 36.6223 294.741 37.2113C295.255 37.7929 295.512 38.5422 295.512 39.4593C295.512 40.1527 295.378 40.7977 295.11 41.3942C294.841 41.9907 294.446 42.5126 293.924 42.9599C293.41 43.3999 292.772 43.7466 292.012 44.0001C291.251 44.2461 290.382 44.3691 289.406 44.3691H282.897ZM286.677 37.4574V41.5172H289.339C289.838 41.5172 290.245 41.4538 290.558 41.3271C290.878 41.2003 291.128 41.0363 291.307 40.835C291.486 40.6337 291.609 40.4063 291.676 40.1527C291.743 39.8992 291.777 39.642 291.777 39.381C291.777 39.0828 291.736 38.8144 291.654 38.5758C291.579 38.3372 291.445 38.1359 291.251 37.9719C291.065 37.8078 290.815 37.6811 290.502 37.5916C290.189 37.5021 289.793 37.4574 289.316 37.4574H286.677ZM286.677 34.9298H288.645C289.063 34.9298 289.439 34.9 289.775 34.8403C290.11 34.7807 290.394 34.6763 290.625 34.5272C290.863 34.378 291.042 34.173 291.162 33.912C291.288 33.6511 291.352 33.323 291.352 32.9278C291.352 32.5401 291.303 32.2195 291.206 31.966C291.109 31.705 290.96 31.4963 290.759 31.3397C290.558 31.1831 290.3 31.0713 289.987 31.0042C289.682 30.9371 289.316 30.9035 288.891 30.9035H286.677V34.9298ZM309.039 28.074V30.9818H302.351V34.7844H307.473V37.5804H302.351V41.4613H309.039V44.3691H298.548V28.074H309.039ZM324.001 28.074V31.0713H319.416V44.3691H315.635V31.0713H311.05V28.074H324.001ZM339.906 44.3691H336.975C336.647 44.3691 336.375 44.2946 336.159 44.1455C335.95 43.9889 335.805 43.7913 335.723 43.5527L334.761 40.712H328.565L327.603 43.5527C327.529 43.7615 327.383 43.9516 327.167 44.1231C326.951 44.2871 326.686 44.3691 326.373 44.3691H323.42L329.728 28.074H333.598L339.906 44.3691ZM329.437 38.1396H333.889L332.39 33.6772C332.293 33.3938 332.177 33.062 332.043 32.6818C331.916 32.2941 331.79 31.8765 331.663 31.4292C331.544 31.884 331.421 32.3053 331.294 32.693C331.167 33.0807 331.048 33.4162 330.936 33.6995L329.437 38.1396Z" fill="white"/>
<defs>
<filter id="filter0_d" x="252.858" y="0.974716" width="116.703" height="70.022" filterUnits="userSpaceOnUse" color-interpolation-filters="sRGB">
<feFlood flood-opacity="0" result="BackgroundImageFix"/>
<feColorMatrix in="SourceAlpha" type="matrix" values="0 0 0 0 0 0 0 0 0 0 0 0 0 0 0 0 0 0 127 0"/>
<feOffset/>
<feGaussianBlur stdDeviation="7.78022"/>
<feColorMatrix type="matrix" values="0 0 0 0 0 0 0 0 0 0 0 0 0 0 0 0 0 0 0.13 0"/>
<feBlend mode="normal" in2="BackgroundImageFix" result="effect1_dropShadow"/>
<feBlend mode="normal" in="SourceGraphic" in2="effect1_dropShadow" result="shape"/>
</filter>
</defs>
</svg>
